<mxfile host="www.draw.io" modified="2020-02-20T07:30:36.629Z" agent="Mozilla/5.0 (Windows NT 10.0; WOW64) AppleWebKit/537.36 (KHTML, like Gecko) Chrome/78.0.3904.108 Safari/537.36" etag="5elCtwFw_2A5cXGGgcJ9" version="12.7.2" type="github">
  <diagram id="7BTFhG5sN_cPpJs926Fj" name="第 1 页">
    <mxGraphModel dx="1022" dy="466" grid="1" gridSize="10" guides="1" tooltips="1" connect="1" arrows="1" fold="1" page="1" pageScale="1" pageWidth="827" pageHeight="1169" math="0" shadow="0">
      <root>
        <mxCell id="0" />
        <mxCell id="1" parent="0" />
        <mxCell id="uXNEWNocd3E9-7-9gSWc-4" value="首页数据" style="text;html=1;strokeColor=none;fillColor=none;align=center;verticalAlign=middle;whiteSpace=wrap;rounded=0;" parent="1" vertex="1">
          <mxGeometry x="50" y="530" width="90" height="30" as="geometry" />
        </mxCell>
        <mxCell id="uXNEWNocd3E9-7-9gSWc-5" style="edgeStyle=orthogonalEdgeStyle;rounded=0;orthogonalLoop=1;jettySize=auto;html=1;exitX=0.5;exitY=1;exitDx=0;exitDy=0;" parent="1" source="uXNEWNocd3E9-7-9gSWc-4" target="uXNEWNocd3E9-7-9gSWc-4" edge="1">
          <mxGeometry relative="1" as="geometry" />
        </mxCell>
        <mxCell id="uXNEWNocd3E9-7-9gSWc-17" value="立即兑换页面" style="text;html=1;strokeColor=none;fillColor=none;align=center;verticalAlign=middle;whiteSpace=wrap;rounded=0;" parent="1" vertex="1">
          <mxGeometry x="70" y="1050" width="160" height="40" as="geometry" />
        </mxCell>
        <mxCell id="uXNEWNocd3E9-7-9gSWc-33" value="印花明细" style="text;html=1;strokeColor=none;fillColor=none;align=center;verticalAlign=middle;whiteSpace=wrap;rounded=0;" parent="1" vertex="1">
          <mxGeometry x="449.99999999999994" y="650" width="150" height="40" as="geometry" />
        </mxCell>
        <mxCell id="uXNEWNocd3E9-7-9gSWc-39" value="puzzle_account（拼图账户）" style="swimlane;fontStyle=0;childLayout=stackLayout;horizontal=1;startSize=26;fillColor=#e0e0e0;horizontalStack=0;resizeParent=1;resizeParentMax=0;resizeLast=0;collapsible=1;marginBottom=0;swimlaneFillColor=#ffffff;align=center;fontSize=14;" parent="1" vertex="1">
          <mxGeometry x="70" y="50" width="230" height="208" as="geometry">
            <mxRectangle x="60" y="1040" width="210" height="26" as="alternateBounds" />
          </mxGeometry>
        </mxCell>
        <mxCell id="uXNEWNocd3E9-7-9gSWc-40" value="id  主键" style="text;strokeColor=none;fillColor=none;spacingLeft=4;spacingRight=4;overflow=hidden;rotatable=0;points=[[0,0.5],[1,0.5]];portConstraint=eastwest;fontSize=12;" parent="uXNEWNocd3E9-7-9gSWc-39" vertex="1">
          <mxGeometry y="26" width="230" height="26" as="geometry" />
        </mxCell>
        <mxCell id="uXNEWNocd3E9-7-9gSWc-41" value="user_id  用户id" style="text;strokeColor=none;fillColor=none;spacingLeft=4;spacingRight=4;overflow=hidden;rotatable=0;points=[[0,0.5],[1,0.5]];portConstraint=eastwest;fontSize=12;" parent="uXNEWNocd3E9-7-9gSWc-39" vertex="1">
          <mxGeometry y="52" width="230" height="26" as="geometry" />
        </mxCell>
        <mxCell id="uXNEWNocd3E9-7-9gSWc-42" value="act_id 活动id" style="text;strokeColor=none;fillColor=none;spacingLeft=4;spacingRight=4;overflow=hidden;rotatable=0;points=[[0,0.5],[1,0.5]];portConstraint=eastwest;fontSize=12;" parent="uXNEWNocd3E9-7-9gSWc-39" vertex="1">
          <mxGeometry y="78" width="230" height="26" as="geometry" />
        </mxCell>
        <mxCell id="uXNEWNocd3E9-7-9gSWc-43" value="available_count 可用总数量" style="text;strokeColor=none;fillColor=none;spacingLeft=4;spacingRight=4;overflow=hidden;rotatable=0;points=[[0,0.5],[1,0.5]];portConstraint=eastwest;fontSize=12;" parent="uXNEWNocd3E9-7-9gSWc-39" vertex="1">
          <mxGeometry y="104" width="230" height="26" as="geometry" />
        </mxCell>
        <mxCell id="uXNEWNocd3E9-7-9gSWc-44" value="create_time 创建时间" style="text;strokeColor=none;fillColor=none;spacingLeft=4;spacingRight=4;overflow=hidden;rotatable=0;points=[[0,0.5],[1,0.5]];portConstraint=eastwest;fontSize=12;" parent="uXNEWNocd3E9-7-9gSWc-39" vertex="1">
          <mxGeometry y="130" width="230" height="26" as="geometry" />
        </mxCell>
        <mxCell id="lTAeMfMbc0AauGk1_NEG-116" value="update_time  更新时间" style="text;strokeColor=none;fillColor=none;spacingLeft=4;spacingRight=4;overflow=hidden;rotatable=0;points=[[0,0.5],[1,0.5]];portConstraint=eastwest;fontSize=12;" parent="uXNEWNocd3E9-7-9gSWc-39" vertex="1">
          <mxGeometry y="156" width="230" height="26" as="geometry" />
        </mxCell>
        <mxCell id="uXNEWNocd3E9-7-9gSWc-45" value="freezed_count 失败冻结数量" style="text;strokeColor=none;fillColor=none;spacingLeft=4;spacingRight=4;overflow=hidden;rotatable=0;points=[[0,0.5],[1,0.5]];portConstraint=eastwest;fontSize=12;" parent="uXNEWNocd3E9-7-9gSWc-39" vertex="1">
          <mxGeometry y="182" width="230" height="26" as="geometry" />
        </mxCell>
        <mxCell id="uXNEWNocd3E9-7-9gSWc-47" value="puzzle_flow（账户流水）" style="swimlane;fontStyle=0;childLayout=stackLayout;horizontal=1;startSize=26;fillColor=#e0e0e0;horizontalStack=0;resizeParent=1;resizeParentMax=0;resizeLast=0;collapsible=1;marginBottom=0;swimlaneFillColor=#ffffff;align=center;fontSize=14;" parent="1" vertex="1">
          <mxGeometry x="300" y="50" width="230" height="312" as="geometry">
            <mxRectangle x="60" y="1040" width="210" height="26" as="alternateBounds" />
          </mxGeometry>
        </mxCell>
        <mxCell id="uXNEWNocd3E9-7-9gSWc-48" value="id  主键" style="text;strokeColor=none;fillColor=none;spacingLeft=4;spacingRight=4;overflow=hidden;rotatable=0;points=[[0,0.5],[1,0.5]];portConstraint=eastwest;fontSize=12;" parent="uXNEWNocd3E9-7-9gSWc-47" vertex="1">
          <mxGeometry y="26" width="230" height="26" as="geometry" />
        </mxCell>
        <mxCell id="uXNEWNocd3E9-7-9gSWc-49" value="channel 渠道" style="text;strokeColor=none;fillColor=none;spacingLeft=4;spacingRight=4;overflow=hidden;rotatable=0;points=[[0,0.5],[1,0.5]];portConstraint=eastwest;fontSize=12;" parent="uXNEWNocd3E9-7-9gSWc-47" vertex="1">
          <mxGeometry y="52" width="230" height="26" as="geometry" />
        </mxCell>
        <mxCell id="uXNEWNocd3E9-7-9gSWc-50" value="num 数量" style="text;strokeColor=none;fillColor=none;spacingLeft=4;spacingRight=4;overflow=hidden;rotatable=0;points=[[0,0.5],[1,0.5]];portConstraint=eastwest;fontSize=12;" parent="uXNEWNocd3E9-7-9gSWc-47" vertex="1">
          <mxGeometry y="78" width="230" height="26" as="geometry" />
        </mxCell>
        <mxCell id="uXNEWNocd3E9-7-9gSWc-51" value="mark 备注" style="text;strokeColor=none;fillColor=none;spacingLeft=4;spacingRight=4;overflow=hidden;rotatable=0;points=[[0,0.5],[1,0.5]];portConstraint=eastwest;fontSize=12;" parent="uXNEWNocd3E9-7-9gSWc-47" vertex="1">
          <mxGeometry y="104" width="230" height="26" as="geometry" />
        </mxCell>
        <mxCell id="uXNEWNocd3E9-7-9gSWc-77" value="association 单号" style="text;strokeColor=none;fillColor=none;spacingLeft=4;spacingRight=4;overflow=hidden;rotatable=0;points=[[0,0.5],[1,0.5]];portConstraint=eastwest;fontSize=12;" parent="uXNEWNocd3E9-7-9gSWc-47" vertex="1">
          <mxGeometry y="130" width="230" height="26" as="geometry" />
        </mxCell>
        <mxCell id="vE5Wcmu8pGLO7yd3Htef-75" value="source 来源" style="text;strokeColor=none;fillColor=none;spacingLeft=4;spacingRight=4;overflow=hidden;rotatable=0;points=[[0,0.5],[1,0.5]];portConstraint=eastwest;fontSize=12;" parent="uXNEWNocd3E9-7-9gSWc-47" vertex="1">
          <mxGeometry y="156" width="230" height="26" as="geometry" />
        </mxCell>
        <mxCell id="uXNEWNocd3E9-7-9gSWc-52" value="act_id 活动id" style="text;strokeColor=none;fillColor=none;spacingLeft=4;spacingRight=4;overflow=hidden;rotatable=0;points=[[0,0.5],[1,0.5]];portConstraint=eastwest;fontSize=12;" parent="uXNEWNocd3E9-7-9gSWc-47" vertex="1">
          <mxGeometry y="182" width="230" height="26" as="geometry" />
        </mxCell>
        <mxCell id="uXNEWNocd3E9-7-9gSWc-53" value="type 7种流水类型//0任务完成1奖励兑换2赠送3退回" style="text;strokeColor=none;fillColor=none;spacingLeft=4;spacingRight=4;overflow=hidden;rotatable=0;points=[[0,0.5],[1,0.5]];portConstraint=eastwest;fontSize=12;" parent="uXNEWNocd3E9-7-9gSWc-47" vertex="1">
          <mxGeometry y="208" width="230" height="26" as="geometry" />
        </mxCell>
        <mxCell id="uXNEWNocd3E9-7-9gSWc-76" value="user_id 用户id" style="text;strokeColor=none;fillColor=none;spacingLeft=4;spacingRight=4;overflow=hidden;rotatable=0;points=[[0,0.5],[1,0.5]];portConstraint=eastwest;fontSize=12;" parent="uXNEWNocd3E9-7-9gSWc-47" vertex="1">
          <mxGeometry y="234" width="230" height="26" as="geometry" />
        </mxCell>
        <mxCell id="uXNEWNocd3E9-7-9gSWc-54" value="create_time 创建时间" style="text;strokeColor=none;fillColor=none;spacingLeft=4;spacingRight=4;overflow=hidden;rotatable=0;points=[[0,0.5],[1,0.5]];portConstraint=eastwest;fontSize=12;" parent="uXNEWNocd3E9-7-9gSWc-47" vertex="1">
          <mxGeometry y="260" width="230" height="26" as="geometry" />
        </mxCell>
        <mxCell id="vE5Wcmu8pGLO7yd3Htef-76" value="task_id 任务id" style="text;strokeColor=none;fillColor=none;spacingLeft=4;spacingRight=4;overflow=hidden;rotatable=0;points=[[0,0.5],[1,0.5]];portConstraint=eastwest;fontSize=12;" parent="uXNEWNocd3E9-7-9gSWc-47" vertex="1">
          <mxGeometry y="286" width="230" height="26" as="geometry" />
        </mxCell>
        <mxCell id="uXNEWNocd3E9-7-9gSWc-56" value="puzzle_give_log（赠送记录）" style="swimlane;fontStyle=0;childLayout=stackLayout;horizontal=1;startSize=26;fillColor=#e0e0e0;horizontalStack=0;resizeParent=1;resizeParentMax=0;resizeLast=0;collapsible=1;marginBottom=0;swimlaneFillColor=#ffffff;align=center;fontSize=14;" parent="1" vertex="1">
          <mxGeometry x="70" y="258" width="230" height="260" as="geometry">
            <mxRectangle x="60" y="1040" width="210" height="26" as="alternateBounds" />
          </mxGeometry>
        </mxCell>
        <mxCell id="uXNEWNocd3E9-7-9gSWc-57" value="id  主键" style="text;strokeColor=none;fillColor=none;spacingLeft=4;spacingRight=4;overflow=hidden;rotatable=0;points=[[0,0.5],[1,0.5]];portConstraint=eastwest;fontSize=12;" parent="uXNEWNocd3E9-7-9gSWc-56" vertex="1">
          <mxGeometry y="26" width="230" height="26" as="geometry" />
        </mxCell>
        <mxCell id="uXNEWNocd3E9-7-9gSWc-58" value="channel 渠道" style="text;strokeColor=none;fillColor=none;spacingLeft=4;spacingRight=4;overflow=hidden;rotatable=0;points=[[0,0.5],[1,0.5]];portConstraint=eastwest;fontSize=12;" parent="uXNEWNocd3E9-7-9gSWc-56" vertex="1">
          <mxGeometry y="52" width="230" height="26" as="geometry" />
        </mxCell>
        <mxCell id="uXNEWNocd3E9-7-9gSWc-59" value="give_user_id 赠送人" style="text;strokeColor=none;fillColor=none;spacingLeft=4;spacingRight=4;overflow=hidden;rotatable=0;points=[[0,0.5],[1,0.5]];portConstraint=eastwest;fontSize=12;" parent="uXNEWNocd3E9-7-9gSWc-56" vertex="1">
          <mxGeometry y="78" width="230" height="26" as="geometry" />
        </mxCell>
        <mxCell id="uXNEWNocd3E9-7-9gSWc-60" value="receive_user_id 接受人" style="text;strokeColor=none;fillColor=none;spacingLeft=4;spacingRight=4;overflow=hidden;rotatable=0;points=[[0,0.5],[1,0.5]];portConstraint=eastwest;fontSize=12;" parent="uXNEWNocd3E9-7-9gSWc-56" vertex="1">
          <mxGeometry y="104" width="230" height="26" as="geometry" />
        </mxCell>
        <mxCell id="uXNEWNocd3E9-7-9gSWc-61" value="act_id 活动id" style="text;strokeColor=none;fillColor=none;spacingLeft=4;spacingRight=4;overflow=hidden;rotatable=0;points=[[0,0.5],[1,0.5]];portConstraint=eastwest;fontSize=12;" parent="uXNEWNocd3E9-7-9gSWc-56" vertex="1">
          <mxGeometry y="130" width="230" height="26" as="geometry" />
        </mxCell>
        <mxCell id="uXNEWNocd3E9-7-9gSWc-63" value="create_time 创建时间" style="text;strokeColor=none;fillColor=none;spacingLeft=4;spacingRight=4;overflow=hidden;rotatable=0;points=[[0,0.5],[1,0.5]];portConstraint=eastwest;fontSize=12;" parent="uXNEWNocd3E9-7-9gSWc-56" vertex="1">
          <mxGeometry y="156" width="230" height="26" as="geometry" />
        </mxCell>
        <mxCell id="uXNEWNocd3E9-7-9gSWc-64" value="expire_time 过期时间" style="text;strokeColor=none;fillColor=none;spacingLeft=4;spacingRight=4;overflow=hidden;rotatable=0;points=[[0,0.5],[1,0.5]];portConstraint=eastwest;fontSize=12;" parent="uXNEWNocd3E9-7-9gSWc-56" vertex="1">
          <mxGeometry y="182" width="230" height="26" as="geometry" />
        </mxCell>
        <mxCell id="uXNEWNocd3E9-7-9gSWc-65" value="state 赠送状态0赠送中1已接受2已退回3已撤回" style="text;strokeColor=none;fillColor=none;spacingLeft=4;spacingRight=4;overflow=hidden;rotatable=0;points=[[0,0.5],[1,0.5]];portConstraint=eastwest;fontSize=12;" parent="uXNEWNocd3E9-7-9gSWc-56" vertex="1">
          <mxGeometry y="208" width="230" height="26" as="geometry" />
        </mxCell>
        <mxCell id="uXNEWNocd3E9-7-9gSWc-66" value="share_code 分享码" style="text;strokeColor=none;fillColor=none;spacingLeft=4;spacingRight=4;overflow=hidden;rotatable=0;points=[[0,0.5],[1,0.5]];portConstraint=eastwest;fontSize=12;" parent="uXNEWNocd3E9-7-9gSWc-56" vertex="1">
          <mxGeometry y="234" width="230" height="26" as="geometry" />
        </mxCell>
        <mxCell id="uXNEWNocd3E9-7-9gSWc-68" value="puzzle_award_log（兑奖记录）" style="swimlane;fontStyle=0;childLayout=stackLayout;horizontal=1;startSize=26;fillColor=#e0e0e0;horizontalStack=0;resizeParent=1;resizeParentMax=0;resizeLast=0;collapsible=1;marginBottom=0;swimlaneFillColor=#ffffff;align=center;fontSize=14;" parent="1" vertex="1">
          <mxGeometry x="530" y="50" width="230" height="312" as="geometry">
            <mxRectangle x="60" y="1040" width="210" height="26" as="alternateBounds" />
          </mxGeometry>
        </mxCell>
        <mxCell id="uXNEWNocd3E9-7-9gSWc-69" value="id  主键" style="text;strokeColor=none;fillColor=none;spacingLeft=4;spacingRight=4;overflow=hidden;rotatable=0;points=[[0,0.5],[1,0.5]];portConstraint=eastwest;fontSize=12;" parent="uXNEWNocd3E9-7-9gSWc-68" vertex="1">
          <mxGeometry y="26" width="230" height="26" as="geometry" />
        </mxCell>
        <mxCell id="uXNEWNocd3E9-7-9gSWc-70" value="channel 渠道" style="text;strokeColor=none;fillColor=none;spacingLeft=4;spacingRight=4;overflow=hidden;rotatable=0;points=[[0,0.5],[1,0.5]];portConstraint=eastwest;fontSize=12;" parent="uXNEWNocd3E9-7-9gSWc-68" vertex="1">
          <mxGeometry y="52" width="230" height="26" as="geometry" />
        </mxCell>
        <mxCell id="uXNEWNocd3E9-7-9gSWc-71" value="user_id 用户id" style="text;strokeColor=none;fillColor=none;spacingLeft=4;spacingRight=4;overflow=hidden;rotatable=0;points=[[0,0.5],[1,0.5]];portConstraint=eastwest;fontSize=12;" parent="uXNEWNocd3E9-7-9gSWc-68" vertex="1">
          <mxGeometry y="78" width="230" height="26" as="geometry" />
        </mxCell>
        <mxCell id="uXNEWNocd3E9-7-9gSWc-72" value="award_content 奖品内容" style="text;strokeColor=none;fillColor=none;spacingLeft=4;spacingRight=4;overflow=hidden;rotatable=0;points=[[0,0.5],[1,0.5]];portConstraint=eastwest;fontSize=12;" parent="uXNEWNocd3E9-7-9gSWc-68" vertex="1">
          <mxGeometry y="104" width="230" height="26" as="geometry" />
        </mxCell>
        <mxCell id="uXNEWNocd3E9-7-9gSWc-73" value="act_id 活动id" style="text;strokeColor=none;fillColor=none;spacingLeft=4;spacingRight=4;overflow=hidden;rotatable=0;points=[[0,0.5],[1,0.5]];portConstraint=eastwest;fontSize=12;" parent="uXNEWNocd3E9-7-9gSWc-68" vertex="1">
          <mxGeometry y="130" width="230" height="26" as="geometry" />
        </mxCell>
        <mxCell id="uXNEWNocd3E9-7-9gSWc-74" value="award_id 奖品id" style="text;strokeColor=none;fillColor=none;spacingLeft=4;spacingRight=4;overflow=hidden;rotatable=0;points=[[0,0.5],[1,0.5]];portConstraint=eastwest;fontSize=12;" parent="uXNEWNocd3E9-7-9gSWc-68" vertex="1">
          <mxGeometry y="156" width="230" height="26" as="geometry" />
        </mxCell>
        <mxCell id="uXNEWNocd3E9-7-9gSWc-75" value="create_time 创建时间" style="text;strokeColor=none;fillColor=none;spacingLeft=4;spacingRight=4;overflow=hidden;rotatable=0;points=[[0,0.5],[1,0.5]];portConstraint=eastwest;fontSize=12;" parent="uXNEWNocd3E9-7-9gSWc-68" vertex="1">
          <mxGeometry y="182" width="230" height="26" as="geometry" />
        </mxCell>
        <mxCell id="uXNEWNocd3E9-7-9gSWc-87" value="exchange_order_code 兑换单号" style="text;strokeColor=none;fillColor=none;spacingLeft=4;spacingRight=4;overflow=hidden;rotatable=0;points=[[0,0.5],[1,0.5]];portConstraint=eastwest;fontSize=12;" parent="uXNEWNocd3E9-7-9gSWc-68" vertex="1">
          <mxGeometry y="208" width="230" height="26" as="geometry" />
        </mxCell>
        <mxCell id="uXNEWNocd3E9-7-9gSWc-88" value="state 状态//0失败1成功2退回" style="text;strokeColor=none;fillColor=none;spacingLeft=4;spacingRight=4;overflow=hidden;rotatable=0;points=[[0,0.5],[1,0.5]];portConstraint=eastwest;fontSize=12;" parent="uXNEWNocd3E9-7-9gSWc-68" vertex="1">
          <mxGeometry y="234" width="230" height="26" as="geometry" />
        </mxCell>
        <mxCell id="lTAeMfMbc0AauGk1_NEG-73" value="return_time 退回时间" style="text;strokeColor=none;fillColor=none;spacingLeft=4;spacingRight=4;overflow=hidden;rotatable=0;points=[[0,0.5],[1,0.5]];portConstraint=eastwest;fontSize=12;" parent="uXNEWNocd3E9-7-9gSWc-68" vertex="1">
          <mxGeometry y="260" width="230" height="26" as="geometry" />
        </mxCell>
        <mxCell id="uXNEWNocd3E9-7-9gSWc-89" value="transaction_id 业务id" style="text;strokeColor=none;fillColor=none;spacingLeft=4;spacingRight=4;overflow=hidden;rotatable=0;points=[[0,0.5],[1,0.5]];portConstraint=eastwest;fontSize=12;" parent="uXNEWNocd3E9-7-9gSWc-68" vertex="1">
          <mxGeometry y="286" width="230" height="26" as="geometry" />
        </mxCell>
        <mxCell id="lTAeMfMbc0AauGk1_NEG-12" value="确认兑换" style="text;html=1;strokeColor=none;fillColor=none;align=center;verticalAlign=middle;whiteSpace=wrap;rounded=0;" parent="1" vertex="1">
          <mxGeometry x="10" y="1710" width="170" height="30" as="geometry" />
        </mxCell>
        <mxCell id="lTAeMfMbc0AauGk1_NEG-36" value="wx/app" style="swimlane;startSize=20;" parent="1" vertex="1">
          <mxGeometry x="40" y="1750" width="220" height="2190" as="geometry" />
        </mxCell>
        <mxCell id="lTAeMfMbc0AauGk1_NEG-38" value="activityId，awardId" style="rounded=1;whiteSpace=wrap;html=1;" parent="lTAeMfMbc0AauGk1_NEG-36" vertex="1">
          <mxGeometry x="25" y="40" width="120" height="60" as="geometry" />
        </mxCell>
        <mxCell id="lTAeMfMbc0AauGk1_NEG-59" value="兑换失败" style="rounded=1;whiteSpace=wrap;html=1;" parent="lTAeMfMbc0AauGk1_NEG-36" vertex="1">
          <mxGeometry x="32" y="280" width="120" height="60" as="geometry" />
        </mxCell>
        <mxCell id="lTAeMfMbc0AauGk1_NEG-104" value="兑换成功" style="rounded=1;whiteSpace=wrap;html=1;" parent="lTAeMfMbc0AauGk1_NEG-36" vertex="1">
          <mxGeometry x="50" y="1630" width="120" height="60" as="geometry" />
        </mxCell>
        <mxCell id="lTAeMfMbc0AauGk1_NEG-106" value="兑换失败" style="rounded=1;whiteSpace=wrap;html=1;" parent="lTAeMfMbc0AauGk1_NEG-36" vertex="1">
          <mxGeometry x="50" y="1780" width="120" height="60" as="geometry" />
        </mxCell>
        <mxCell id="rnevg4mzAQMMUmfZW82p-10" value="无库存" style="rounded=1;whiteSpace=wrap;html=1;" vertex="1" parent="lTAeMfMbc0AauGk1_NEG-36">
          <mxGeometry x="40" y="1180" width="120" height="60" as="geometry" />
        </mxCell>
        <mxCell id="rnevg4mzAQMMUmfZW82p-26" value="印花不足" style="rounded=1;whiteSpace=wrap;html=1;" vertex="1" parent="lTAeMfMbc0AauGk1_NEG-36">
          <mxGeometry x="32" y="720" width="120" height="60" as="geometry" />
        </mxCell>
        <mxCell id="rnevg4mzAQMMUmfZW82p-69" value="无库存" style="rounded=1;whiteSpace=wrap;html=1;" vertex="1" parent="lTAeMfMbc0AauGk1_NEG-36">
          <mxGeometry x="30" y="1360" width="120" height="60" as="geometry" />
        </mxCell>
        <mxCell id="lTAeMfMbc0AauGk1_NEG-37" value="后台" style="swimlane;startSize=20;" parent="1" vertex="1">
          <mxGeometry x="260" y="1750" width="340" height="2190" as="geometry" />
        </mxCell>
        <mxCell id="rnevg4mzAQMMUmfZW82p-3" value="" style="edgeStyle=orthogonalEdgeStyle;rounded=0;orthogonalLoop=1;jettySize=auto;html=1;" edge="1" parent="lTAeMfMbc0AauGk1_NEG-37" source="lTAeMfMbc0AauGk1_NEG-39" target="lTAeMfMbc0AauGk1_NEG-51">
          <mxGeometry relative="1" as="geometry" />
        </mxCell>
        <mxCell id="lTAeMfMbc0AauGk1_NEG-39" value="查询活动信息/查询奖品信息" style="rounded=1;whiteSpace=wrap;html=1;" parent="lTAeMfMbc0AauGk1_NEG-37" vertex="1">
          <mxGeometry x="99" y="40" width="120" height="60" as="geometry" />
        </mxCell>
        <mxCell id="rnevg4mzAQMMUmfZW82p-4" style="edgeStyle=orthogonalEdgeStyle;rounded=0;orthogonalLoop=1;jettySize=auto;html=1;exitX=1;exitY=0.5;exitDx=0;exitDy=0;entryX=1;entryY=0.5;entryDx=0;entryDy=0;" edge="1" parent="lTAeMfMbc0AauGk1_NEG-37" source="lTAeMfMbc0AauGk1_NEG-51" target="lTAeMfMbc0AauGk1_NEG-41">
          <mxGeometry relative="1" as="geometry">
            <Array as="points">
              <mxPoint x="260" y="190" />
              <mxPoint x="260" y="550" />
            </Array>
          </mxGeometry>
        </mxCell>
        <mxCell id="rnevg4mzAQMMUmfZW82p-5" value="否" style="text;html=1;align=center;verticalAlign=middle;resizable=0;points=[];labelBackgroundColor=#ffffff;" vertex="1" connectable="0" parent="rnevg4mzAQMMUmfZW82p-4">
          <mxGeometry x="-0.4333" y="-1" relative="1" as="geometry">
            <mxPoint as="offset" />
          </mxGeometry>
        </mxCell>
        <mxCell id="rnevg4mzAQMMUmfZW82p-13" value="是" style="edgeStyle=orthogonalEdgeStyle;rounded=0;orthogonalLoop=1;jettySize=auto;html=1;entryX=0.5;entryY=0;entryDx=0;entryDy=0;" edge="1" parent="lTAeMfMbc0AauGk1_NEG-37" source="lTAeMfMbc0AauGk1_NEG-51" target="lTAeMfMbc0AauGk1_NEG-53">
          <mxGeometry relative="1" as="geometry">
            <mxPoint x="159" y="190" as="targetPoint" />
          </mxGeometry>
        </mxCell>
        <mxCell id="lTAeMfMbc0AauGk1_NEG-51" value="是否限领" style="rounded=1;whiteSpace=wrap;html=1;" parent="lTAeMfMbc0AauGk1_NEG-37" vertex="1">
          <mxGeometry x="99" y="160" width="120" height="60" as="geometry" />
        </mxCell>
        <mxCell id="rnevg4mzAQMMUmfZW82p-23" value="不满足限领" style="edgeStyle=orthogonalEdgeStyle;rounded=0;orthogonalLoop=1;jettySize=auto;html=1;entryX=0.5;entryY=0;entryDx=0;entryDy=0;" edge="1" parent="lTAeMfMbc0AauGk1_NEG-37" source="lTAeMfMbc0AauGk1_NEG-53" target="lTAeMfMbc0AauGk1_NEG-41">
          <mxGeometry relative="1" as="geometry">
            <mxPoint x="159" y="420" as="targetPoint" />
          </mxGeometry>
        </mxCell>
        <mxCell id="lTAeMfMbc0AauGk1_NEG-53" value="incr用户已经兑换数" style="rounded=1;whiteSpace=wrap;html=1;" parent="lTAeMfMbc0AauGk1_NEG-37" vertex="1">
          <mxGeometry x="99" y="280" width="120" height="60" as="geometry" />
        </mxCell>
        <mxCell id="lTAeMfMbc0AauGk1_NEG-63" value="否" style="edgeStyle=orthogonalEdgeStyle;rounded=0;orthogonalLoop=1;jettySize=auto;html=1;" parent="lTAeMfMbc0AauGk1_NEG-37" source="lTAeMfMbc0AauGk1_NEG-55" target="lTAeMfMbc0AauGk1_NEG-62" edge="1">
          <mxGeometry relative="1" as="geometry" />
        </mxCell>
        <mxCell id="rnevg4mzAQMMUmfZW82p-60" style="edgeStyle=orthogonalEdgeStyle;rounded=0;orthogonalLoop=1;jettySize=auto;html=1;exitX=1;exitY=0.5;exitDx=0;exitDy=0;entryX=1;entryY=0.5;entryDx=0;entryDy=0;" edge="1" parent="lTAeMfMbc0AauGk1_NEG-37" source="lTAeMfMbc0AauGk1_NEG-55" target="lTAeMfMbc0AauGk1_NEG-69">
          <mxGeometry relative="1" as="geometry" />
        </mxCell>
        <mxCell id="rnevg4mzAQMMUmfZW82p-61" value="是" style="text;html=1;align=center;verticalAlign=middle;resizable=0;points=[];labelBackgroundColor=#ffffff;" vertex="1" connectable="0" parent="rnevg4mzAQMMUmfZW82p-60">
          <mxGeometry x="-0.2182" relative="1" as="geometry">
            <mxPoint as="offset" />
          </mxGeometry>
        </mxCell>
        <mxCell id="lTAeMfMbc0AauGk1_NEG-55" value="是否直接发放" style="rounded=1;whiteSpace=wrap;html=1;" parent="lTAeMfMbc0AauGk1_NEG-37" vertex="1">
          <mxGeometry x="94" y="820" width="120" height="60" as="geometry" />
        </mxCell>
        <mxCell id="lTAeMfMbc0AauGk1_NEG-62" value="抽奖发放" style="rounded=1;whiteSpace=wrap;html=1;" parent="lTAeMfMbc0AauGk1_NEG-37" vertex="1">
          <mxGeometry x="94" y="910" width="120" height="60" as="geometry" />
        </mxCell>
        <mxCell id="rnevg4mzAQMMUmfZW82p-9" value="" style="edgeStyle=orthogonalEdgeStyle;rounded=0;orthogonalLoop=1;jettySize=auto;html=1;" edge="1" parent="lTAeMfMbc0AauGk1_NEG-37" source="lTAeMfMbc0AauGk1_NEG-69" target="rnevg4mzAQMMUmfZW82p-8">
          <mxGeometry relative="1" as="geometry" />
        </mxCell>
        <mxCell id="lTAeMfMbc0AauGk1_NEG-69" value="直接发放" style="rounded=1;whiteSpace=wrap;html=1;" parent="lTAeMfMbc0AauGk1_NEG-37" vertex="1">
          <mxGeometry x="94" y="1000" width="120" height="60" as="geometry" />
        </mxCell>
        <mxCell id="rnevg4mzAQMMUmfZW82p-62" value="有" style="edgeStyle=orthogonalEdgeStyle;rounded=0;orthogonalLoop=1;jettySize=auto;html=1;exitX=0.5;exitY=1;exitDx=0;exitDy=0;entryX=0.192;entryY=-0.033;entryDx=0;entryDy=0;entryPerimeter=0;" edge="1" parent="lTAeMfMbc0AauGk1_NEG-37" source="rnevg4mzAQMMUmfZW82p-8" target="rnevg4mzAQMMUmfZW82p-32">
          <mxGeometry relative="1" as="geometry" />
        </mxCell>
        <mxCell id="rnevg4mzAQMMUmfZW82p-63" style="edgeStyle=orthogonalEdgeStyle;rounded=0;orthogonalLoop=1;jettySize=auto;html=1;exitX=0;exitY=0.5;exitDx=0;exitDy=0;entryX=0.5;entryY=0;entryDx=0;entryDy=0;" edge="1" parent="lTAeMfMbc0AauGk1_NEG-37" source="rnevg4mzAQMMUmfZW82p-8" target="rnevg4mzAQMMUmfZW82p-46">
          <mxGeometry relative="1" as="geometry" />
        </mxCell>
        <mxCell id="rnevg4mzAQMMUmfZW82p-64" value="无" style="text;html=1;align=center;verticalAlign=middle;resizable=0;points=[];labelBackgroundColor=#ffffff;" vertex="1" connectable="0" parent="rnevg4mzAQMMUmfZW82p-63">
          <mxGeometry x="0.0238" y="1" relative="1" as="geometry">
            <mxPoint as="offset" />
          </mxGeometry>
        </mxCell>
        <mxCell id="rnevg4mzAQMMUmfZW82p-8" value="incr每个奖励订单库存，是否有奖励库存" style="rounded=1;whiteSpace=wrap;html=1;" vertex="1" parent="lTAeMfMbc0AauGk1_NEG-37">
          <mxGeometry x="94" y="1090" width="120" height="60" as="geometry" />
        </mxCell>
        <mxCell id="rnevg4mzAQMMUmfZW82p-66" style="edgeStyle=orthogonalEdgeStyle;rounded=0;orthogonalLoop=1;jettySize=auto;html=1;exitX=0.25;exitY=1;exitDx=0;exitDy=0;entryX=0.5;entryY=0;entryDx=0;entryDy=0;" edge="1" parent="lTAeMfMbc0AauGk1_NEG-37" source="rnevg4mzAQMMUmfZW82p-32" target="lTAeMfMbc0AauGk1_NEG-79">
          <mxGeometry relative="1" as="geometry" />
        </mxCell>
        <mxCell id="rnevg4mzAQMMUmfZW82p-32" value="操作 记录1" style="rounded=1;whiteSpace=wrap;html=1;" vertex="1" parent="lTAeMfMbc0AauGk1_NEG-37">
          <mxGeometry x="130" y="1180" width="120" height="60" as="geometry" />
        </mxCell>
        <mxCell id="rnevg4mzAQMMUmfZW82p-67" style="edgeStyle=orthogonalEdgeStyle;rounded=0;orthogonalLoop=1;jettySize=auto;html=1;exitX=0;exitY=0.5;exitDx=0;exitDy=0;entryX=0.5;entryY=0;entryDx=0;entryDy=0;" edge="1" parent="lTAeMfMbc0AauGk1_NEG-37" source="lTAeMfMbc0AauGk1_NEG-79" target="rnevg4mzAQMMUmfZW82p-49">
          <mxGeometry relative="1" as="geometry" />
        </mxCell>
        <mxCell id="rnevg4mzAQMMUmfZW82p-68" value="0" style="text;html=1;align=center;verticalAlign=middle;resizable=0;points=[];labelBackgroundColor=#ffffff;" vertex="1" connectable="0" parent="rnevg4mzAQMMUmfZW82p-67">
          <mxGeometry x="0.0238" y="3" relative="1" as="geometry">
            <mxPoint as="offset" />
          </mxGeometry>
        </mxCell>
        <mxCell id="rnevg4mzAQMMUmfZW82p-71" style="edgeStyle=orthogonalEdgeStyle;rounded=0;orthogonalLoop=1;jettySize=auto;html=1;exitX=0.75;exitY=1;exitDx=0;exitDy=0;entryX=0.388;entryY=-0.017;entryDx=0;entryDy=0;entryPerimeter=0;" edge="1" parent="lTAeMfMbc0AauGk1_NEG-37" source="lTAeMfMbc0AauGk1_NEG-79" target="rnevg4mzAQMMUmfZW82p-51">
          <mxGeometry relative="1" as="geometry" />
        </mxCell>
        <mxCell id="lTAeMfMbc0AauGk1_NEG-79" value="更新账户表（update where r&amp;gt;0）可用数减少冻结数增加" style="rounded=1;whiteSpace=wrap;html=1;" parent="lTAeMfMbc0AauGk1_NEG-37" vertex="1">
          <mxGeometry x="94" y="1270" width="120" height="60" as="geometry" />
        </mxCell>
        <mxCell id="lTAeMfMbc0AauGk1_NEG-81" value="保存流水记录/保存成功兑换记录" style="rounded=1;whiteSpace=wrap;html=1;" parent="lTAeMfMbc0AauGk1_NEG-37" vertex="1">
          <mxGeometry x="130" y="1630" width="120" height="60" as="geometry" />
        </mxCell>
        <mxCell id="lTAeMfMbc0AauGk1_NEG-101" value="" style="edgeStyle=orthogonalEdgeStyle;rounded=0;orthogonalLoop=1;jettySize=auto;html=1;" parent="lTAeMfMbc0AauGk1_NEG-37" source="lTAeMfMbc0AauGk1_NEG-96" target="lTAeMfMbc0AauGk1_NEG-100" edge="1">
          <mxGeometry relative="1" as="geometry" />
        </mxCell>
        <mxCell id="lTAeMfMbc0AauGk1_NEG-96" value="更新账户表（update where r&amp;gt;0）冻结数减少" style="rounded=1;whiteSpace=wrap;html=1;" parent="lTAeMfMbc0AauGk1_NEG-37" vertex="1">
          <mxGeometry x="80" y="1880" width="90" height="60" as="geometry" />
        </mxCell>
        <mxCell id="lTAeMfMbc0AauGk1_NEG-103" value="" style="edgeStyle=orthogonalEdgeStyle;rounded=0;orthogonalLoop=1;jettySize=auto;html=1;" parent="lTAeMfMbc0AauGk1_NEG-37" source="lTAeMfMbc0AauGk1_NEG-100" edge="1">
          <mxGeometry relative="1" as="geometry">
            <mxPoint x="125" y="2040" as="targetPoint" />
          </mxGeometry>
        </mxCell>
        <mxCell id="lTAeMfMbc0AauGk1_NEG-100" value="操作记录6" style="rounded=1;whiteSpace=wrap;html=1;" parent="lTAeMfMbc0AauGk1_NEG-37" vertex="1">
          <mxGeometry x="80" y="1960" width="90" height="50" as="geometry" />
        </mxCell>
        <mxCell id="vE5Wcmu8pGLO7yd3Htef-61" style="edgeStyle=orthogonalEdgeStyle;rounded=0;orthogonalLoop=1;jettySize=auto;html=1;exitX=0.25;exitY=1;exitDx=0;exitDy=0;entryX=0.666;entryY=-0.035;entryDx=0;entryDy=0;entryPerimeter=0;" parent="lTAeMfMbc0AauGk1_NEG-37" source="lTAeMfMbc0AauGk1_NEG-111" target="lTAeMfMbc0AauGk1_NEG-96" edge="1">
          <mxGeometry relative="1" as="geometry" />
        </mxCell>
        <mxCell id="lTAeMfMbc0AauGk1_NEG-111" value="保存失败兑换记录" style="rounded=1;whiteSpace=wrap;html=1;" parent="lTAeMfMbc0AauGk1_NEG-37" vertex="1">
          <mxGeometry x="104" y="1780" width="120" height="60" as="geometry" />
        </mxCell>
        <mxCell id="rnevg4mzAQMMUmfZW82p-89" style="edgeStyle=orthogonalEdgeStyle;rounded=0;orthogonalLoop=1;jettySize=auto;html=1;exitX=0.5;exitY=1;exitDx=0;exitDy=0;entryX=0.5;entryY=0;entryDx=0;entryDy=0;" edge="1" parent="lTAeMfMbc0AauGk1_NEG-37" source="vE5Wcmu8pGLO7yd3Htef-51" target="rnevg4mzAQMMUmfZW82p-86">
          <mxGeometry relative="1" as="geometry" />
        </mxCell>
        <mxCell id="vE5Wcmu8pGLO7yd3Htef-51" value="&lt;span style=&quot;white-space: normal&quot;&gt;更新失败兑换记录为退回（update where r&amp;gt;0）&lt;/span&gt;" style="rounded=1;whiteSpace=wrap;html=1;" parent="lTAeMfMbc0AauGk1_NEG-37" vertex="1">
          <mxGeometry x="174" y="1901" width="90" height="60" as="geometry" />
        </mxCell>
        <mxCell id="rnevg4mzAQMMUmfZW82p-107" value="" style="edgeStyle=orthogonalEdgeStyle;rounded=0;orthogonalLoop=1;jettySize=auto;html=1;" edge="1" parent="lTAeMfMbc0AauGk1_NEG-37" source="vE5Wcmu8pGLO7yd3Htef-52" target="rnevg4mzAQMMUmfZW82p-106">
          <mxGeometry relative="1" as="geometry" />
        </mxCell>
        <mxCell id="vE5Wcmu8pGLO7yd3Htef-52" value="更新账户表 冻结数减少可用数增加" style="rounded=1;whiteSpace=wrap;html=1;" parent="lTAeMfMbc0AauGk1_NEG-37" vertex="1">
          <mxGeometry x="170" y="2035.5" width="96" height="59" as="geometry" />
        </mxCell>
        <mxCell id="rnevg4mzAQMMUmfZW82p-106" value="兑换数归还/库存归还" style="rounded=1;whiteSpace=wrap;html=1;" vertex="1" parent="lTAeMfMbc0AauGk1_NEG-37">
          <mxGeometry x="170" y="2120" width="96" height="59" as="geometry" />
        </mxCell>
        <mxCell id="vE5Wcmu8pGLO7yd3Htef-66" value="" style="startArrow=oval;startFill=0;startSize=7;endArrow=block;endFill=0;endSize=10;dashed=1;html=1;strokeColor=#000000;exitX=0;exitY=0.5;exitDx=0;exitDy=0;" parent="lTAeMfMbc0AauGk1_NEG-37" edge="1">
          <mxGeometry width="100" relative="1" as="geometry">
            <mxPoint x="480" y="1859.9999999999995" as="sourcePoint" />
            <mxPoint x="140" y="1860" as="targetPoint" />
          </mxGeometry>
        </mxCell>
        <mxCell id="vE5Wcmu8pGLO7yd3Htef-67" value="重试成功" style="text;html=1;align=center;verticalAlign=middle;resizable=0;points=[];labelBackgroundColor=#ffffff;" parent="vE5Wcmu8pGLO7yd3Htef-66" vertex="1" connectable="0">
          <mxGeometry x="-0.3734" y="-3" relative="1" as="geometry">
            <mxPoint x="1" as="offset" />
          </mxGeometry>
        </mxCell>
        <mxCell id="vE5Wcmu8pGLO7yd3Htef-69" value="" style="startArrow=oval;startFill=0;startSize=7;endArrow=block;endFill=0;endSize=10;dashed=1;html=1;strokeColor=#000000;" parent="lTAeMfMbc0AauGk1_NEG-37" edge="1">
          <mxGeometry width="100" relative="1" as="geometry">
            <mxPoint x="480" y="1935" as="sourcePoint" />
            <mxPoint x="210" y="1880" as="targetPoint" />
          </mxGeometry>
        </mxCell>
        <mxCell id="vE5Wcmu8pGLO7yd3Htef-70" value="退回" style="text;html=1;align=center;verticalAlign=middle;resizable=0;points=[];labelBackgroundColor=#ffffff;" parent="vE5Wcmu8pGLO7yd3Htef-69" vertex="1" connectable="0">
          <mxGeometry x="-0.2058" y="2" relative="1" as="geometry">
            <mxPoint as="offset" />
          </mxGeometry>
        </mxCell>
        <mxCell id="rnevg4mzAQMMUmfZW82p-25" value="" style="edgeStyle=orthogonalEdgeStyle;rounded=0;orthogonalLoop=1;jettySize=auto;html=1;" edge="1" parent="lTAeMfMbc0AauGk1_NEG-37" source="lTAeMfMbc0AauGk1_NEG-41" target="lTAeMfMbc0AauGk1_NEG-43">
          <mxGeometry relative="1" as="geometry" />
        </mxCell>
        <mxCell id="lTAeMfMbc0AauGk1_NEG-41" value="查询用户账户" style="rounded=1;whiteSpace=wrap;html=1;" parent="lTAeMfMbc0AauGk1_NEG-37" vertex="1">
          <mxGeometry x="99" y="520" width="120" height="60" as="geometry" />
        </mxCell>
        <mxCell id="rnevg4mzAQMMUmfZW82p-30" value="有" style="edgeStyle=orthogonalEdgeStyle;rounded=0;orthogonalLoop=1;jettySize=auto;html=1;" edge="1" parent="lTAeMfMbc0AauGk1_NEG-37" source="lTAeMfMbc0AauGk1_NEG-43">
          <mxGeometry relative="1" as="geometry">
            <mxPoint x="160" y="810" as="targetPoint" />
          </mxGeometry>
        </mxCell>
        <mxCell id="lTAeMfMbc0AauGk1_NEG-43" value="判断用户是否有足够拼图" style="rounded=1;whiteSpace=wrap;html=1;" parent="lTAeMfMbc0AauGk1_NEG-37" vertex="1">
          <mxGeometry x="100" y="590" width="120" height="60" as="geometry" />
        </mxCell>
        <mxCell id="rnevg4mzAQMMUmfZW82p-44" value="decr用户兑换数" style="rounded=1;whiteSpace=wrap;html=1;" vertex="1" parent="lTAeMfMbc0AauGk1_NEG-37">
          <mxGeometry x="10" y="720" width="120" height="60" as="geometry" />
        </mxCell>
        <mxCell id="rnevg4mzAQMMUmfZW82p-27" style="edgeStyle=orthogonalEdgeStyle;rounded=0;orthogonalLoop=1;jettySize=auto;html=1;exitX=0;exitY=0.5;exitDx=0;exitDy=0;entryX=0.5;entryY=0;entryDx=0;entryDy=0;" edge="1" parent="lTAeMfMbc0AauGk1_NEG-37" source="lTAeMfMbc0AauGk1_NEG-43" target="rnevg4mzAQMMUmfZW82p-44">
          <mxGeometry relative="1" as="geometry">
            <mxPoint x="30" y="620" as="targetPoint" />
          </mxGeometry>
        </mxCell>
        <mxCell id="rnevg4mzAQMMUmfZW82p-28" value="无" style="text;html=1;align=center;verticalAlign=middle;resizable=0;points=[];labelBackgroundColor=#ffffff;" vertex="1" connectable="0" parent="rnevg4mzAQMMUmfZW82p-27">
          <mxGeometry x="0.1429" y="2" relative="1" as="geometry">
            <mxPoint as="offset" />
          </mxGeometry>
        </mxCell>
        <mxCell id="rnevg4mzAQMMUmfZW82p-46" value="decr用户兑换数" style="rounded=1;whiteSpace=wrap;html=1;" vertex="1" parent="lTAeMfMbc0AauGk1_NEG-37">
          <mxGeometry x="10" y="1180" width="120" height="60" as="geometry" />
        </mxCell>
        <mxCell id="rnevg4mzAQMMUmfZW82p-51" value="操作 记录2" style="rounded=1;whiteSpace=wrap;html=1;" vertex="1" parent="lTAeMfMbc0AauGk1_NEG-37">
          <mxGeometry x="130" y="1360" width="120" height="60" as="geometry" />
        </mxCell>
        <mxCell id="rnevg4mzAQMMUmfZW82p-49" value="操作 记录3/decr用户兑换数/decr奖品库存" style="rounded=1;whiteSpace=wrap;html=1;" vertex="1" parent="lTAeMfMbc0AauGk1_NEG-37">
          <mxGeometry x="10" y="1360" width="120" height="60" as="geometry" />
        </mxCell>
        <mxCell id="rnevg4mzAQMMUmfZW82p-78" style="edgeStyle=orthogonalEdgeStyle;rounded=0;orthogonalLoop=1;jettySize=auto;html=1;exitX=0.5;exitY=1;exitDx=0;exitDy=0;entryX=0.5;entryY=0;entryDx=0;entryDy=0;" edge="1" parent="lTAeMfMbc0AauGk1_NEG-37" source="rnevg4mzAQMMUmfZW82p-35" target="rnevg4mzAQMMUmfZW82p-38">
          <mxGeometry relative="1" as="geometry" />
        </mxCell>
        <mxCell id="rnevg4mzAQMMUmfZW82p-35" value="更新账户表（update where r&amp;gt;0）冻结数减少" style="rounded=1;whiteSpace=wrap;html=1;" vertex="1" parent="lTAeMfMbc0AauGk1_NEG-37">
          <mxGeometry x="130" y="1450" width="120" height="60" as="geometry" />
        </mxCell>
        <mxCell id="rnevg4mzAQMMUmfZW82p-38" value="操作 记录4" style="rounded=1;whiteSpace=wrap;html=1;" vertex="1" parent="lTAeMfMbc0AauGk1_NEG-37">
          <mxGeometry x="130" y="1540" width="120" height="60" as="geometry" />
        </mxCell>
        <mxCell id="rnevg4mzAQMMUmfZW82p-54" value="" style="edgeStyle=orthogonalEdgeStyle;rounded=0;orthogonalLoop=1;jettySize=auto;html=1;" edge="1" parent="lTAeMfMbc0AauGk1_NEG-37" source="rnevg4mzAQMMUmfZW82p-38" target="lTAeMfMbc0AauGk1_NEG-81">
          <mxGeometry relative="1" as="geometry" />
        </mxCell>
        <mxCell id="rnevg4mzAQMMUmfZW82p-75" style="edgeStyle=orthogonalEdgeStyle;rounded=0;orthogonalLoop=1;jettySize=auto;html=1;exitX=0.5;exitY=1;exitDx=0;exitDy=0;entryX=0.5;entryY=0;entryDx=0;entryDy=0;" edge="1" parent="lTAeMfMbc0AauGk1_NEG-37" source="rnevg4mzAQMMUmfZW82p-55">
          <mxGeometry relative="1" as="geometry">
            <mxPoint x="154" y="1780" as="targetPoint" />
          </mxGeometry>
        </mxCell>
        <mxCell id="rnevg4mzAQMMUmfZW82p-55" value="操作 记录5" style="rounded=1;whiteSpace=wrap;html=1;" vertex="1" parent="lTAeMfMbc0AauGk1_NEG-37">
          <mxGeometry x="99" y="1697" width="120" height="60" as="geometry" />
        </mxCell>
        <mxCell id="rnevg4mzAQMMUmfZW82p-76" value="保存流水记录/更新兑换记录为成功" style="rounded=1;whiteSpace=wrap;html=1;" vertex="1" parent="lTAeMfMbc0AauGk1_NEG-37">
          <mxGeometry x="80" y="2040" width="90" height="50" as="geometry" />
        </mxCell>
        <mxCell id="rnevg4mzAQMMUmfZW82p-90" style="edgeStyle=orthogonalEdgeStyle;rounded=0;orthogonalLoop=1;jettySize=auto;html=1;exitX=0.5;exitY=1;exitDx=0;exitDy=0;entryX=0.5;entryY=0;entryDx=0;entryDy=0;" edge="1" parent="lTAeMfMbc0AauGk1_NEG-37" source="rnevg4mzAQMMUmfZW82p-86" target="vE5Wcmu8pGLO7yd3Htef-52">
          <mxGeometry relative="1" as="geometry" />
        </mxCell>
        <mxCell id="rnevg4mzAQMMUmfZW82p-86" value="操作记录7" style="rounded=1;whiteSpace=wrap;html=1;" vertex="1" parent="lTAeMfMbc0AauGk1_NEG-37">
          <mxGeometry x="170" y="1970" width="90" height="50" as="geometry" />
        </mxCell>
        <mxCell id="lTAeMfMbc0AauGk1_NEG-40" value="" style="edgeStyle=orthogonalEdgeStyle;rounded=0;orthogonalLoop=1;jettySize=auto;html=1;" parent="1" source="lTAeMfMbc0AauGk1_NEG-38" target="lTAeMfMbc0AauGk1_NEG-39" edge="1">
          <mxGeometry relative="1" as="geometry" />
        </mxCell>
        <mxCell id="lTAeMfMbc0AauGk1_NEG-87" style="edgeStyle=orthogonalEdgeStyle;rounded=0;orthogonalLoop=1;jettySize=auto;html=1;exitX=0.75;exitY=1;exitDx=0;exitDy=0;entryX=1;entryY=0.5;entryDx=0;entryDy=0;" parent="1" source="lTAeMfMbc0AauGk1_NEG-74" target="rnevg4mzAQMMUmfZW82p-55" edge="1">
          <mxGeometry relative="1" as="geometry">
            <mxPoint x="480" y="3480" as="targetPoint" />
          </mxGeometry>
        </mxCell>
        <mxCell id="lTAeMfMbc0AauGk1_NEG-88" value="失败" style="text;html=1;align=center;verticalAlign=middle;resizable=0;points=[];labelBackgroundColor=#ffffff;" parent="lTAeMfMbc0AauGk1_NEG-87" vertex="1" connectable="0">
          <mxGeometry x="-0.285" y="3" relative="1" as="geometry">
            <mxPoint as="offset" />
          </mxGeometry>
        </mxCell>
        <mxCell id="lTAeMfMbc0AauGk1_NEG-89" value="admin" style="swimlane;startSize=20;" parent="1" vertex="1">
          <mxGeometry x="740" y="1750" width="170" height="2190" as="geometry" />
        </mxCell>
        <mxCell id="vE5Wcmu8pGLO7yd3Htef-71" value="&lt;span style=&quot;white-space: normal&quot;&gt;&lt;br&gt;&lt;br&gt;&lt;br&gt;admin重试&lt;/span&gt;" style="shape=mxgraph.bpmn.user_task;html=1;outlineConnect=0;" parent="lTAeMfMbc0AauGk1_NEG-89" vertex="1">
          <mxGeometry x="4" y="1810" width="92" height="70" as="geometry" />
        </mxCell>
        <mxCell id="vE5Wcmu8pGLO7yd3Htef-60" value="&lt;span style=&quot;white-space: normal&quot;&gt;&lt;br&gt;&lt;br&gt;&lt;br&gt;admin退回&lt;/span&gt;" style="shape=mxgraph.bpmn.user_task;html=1;outlineConnect=0;" parent="lTAeMfMbc0AauGk1_NEG-89" vertex="1">
          <mxGeometry x="4" y="1890" width="92" height="70" as="geometry" />
        </mxCell>
        <mxCell id="lTAeMfMbc0AauGk1_NEG-105" value="" style="edgeStyle=orthogonalEdgeStyle;rounded=0;orthogonalLoop=1;jettySize=auto;html=1;" parent="1" source="lTAeMfMbc0AauGk1_NEG-81" target="lTAeMfMbc0AauGk1_NEG-104" edge="1">
          <mxGeometry relative="1" as="geometry" />
        </mxCell>
        <mxCell id="lTAeMfMbc0AauGk1_NEG-113" value="" style="edgeStyle=orthogonalEdgeStyle;rounded=0;orthogonalLoop=1;jettySize=auto;html=1;" parent="1" source="lTAeMfMbc0AauGk1_NEG-111" target="lTAeMfMbc0AauGk1_NEG-106" edge="1">
          <mxGeometry relative="1" as="geometry" />
        </mxCell>
        <mxCell id="vE5Wcmu8pGLO7yd3Htef-1" value="wx/app" style="swimlane;startSize=20;" parent="1" vertex="1">
          <mxGeometry x="499.99999999999994" y="690" width="180" height="250" as="geometry" />
        </mxCell>
        <mxCell id="uXNEWNocd3E9-7-9gSWc-34" value="userId，activityId" style="rounded=1;whiteSpace=wrap;html=1;" parent="vE5Wcmu8pGLO7yd3Htef-1" vertex="1">
          <mxGeometry x="30" y="50" width="120" height="60" as="geometry" />
        </mxCell>
        <mxCell id="vE5Wcmu8pGLO7yd3Htef-8" value="&lt;div style=&quot;text-align: left&quot;&gt;&lt;span style=&quot;white-space: nowrap&quot;&gt;印花明细&lt;/span&gt;&lt;/div&gt;" style="rounded=1;whiteSpace=wrap;html=1;" parent="vE5Wcmu8pGLO7yd3Htef-1" vertex="1">
          <mxGeometry x="30" y="160" width="120" height="60" as="geometry" />
        </mxCell>
        <mxCell id="vE5Wcmu8pGLO7yd3Htef-2" value="后台" style="swimlane;startSize=20;" parent="1" vertex="1">
          <mxGeometry x="680" y="690" width="180" height="250" as="geometry" />
        </mxCell>
        <mxCell id="vE5Wcmu8pGLO7yd3Htef-6" value="&lt;span style=&quot;text-align: left ; white-space: nowrap&quot;&gt;从puzzle_flow分页查&lt;br&gt;询流水记录按id倒叙&lt;/span&gt;" style="rounded=1;whiteSpace=wrap;html=1;" parent="vE5Wcmu8pGLO7yd3Htef-2" vertex="1">
          <mxGeometry x="50" y="50" width="120" height="60" as="geometry" />
        </mxCell>
        <mxCell id="vE5Wcmu8pGLO7yd3Htef-7" value="" style="edgeStyle=orthogonalEdgeStyle;rounded=0;orthogonalLoop=1;jettySize=auto;html=1;" parent="1" source="uXNEWNocd3E9-7-9gSWc-34" target="vE5Wcmu8pGLO7yd3Htef-6" edge="1">
          <mxGeometry relative="1" as="geometry" />
        </mxCell>
        <mxCell id="vE5Wcmu8pGLO7yd3Htef-10" style="edgeStyle=orthogonalEdgeStyle;rounded=0;orthogonalLoop=1;jettySize=auto;html=1;exitX=0.5;exitY=1;exitDx=0;exitDy=0;entryX=1;entryY=0.5;entryDx=0;entryDy=0;" parent="1" source="vE5Wcmu8pGLO7yd3Htef-6" target="vE5Wcmu8pGLO7yd3Htef-8" edge="1">
          <mxGeometry relative="1" as="geometry" />
        </mxCell>
        <mxCell id="vE5Wcmu8pGLO7yd3Htef-12" value="wx/app" style="swimlane;startSize=20;" parent="1" vertex="1">
          <mxGeometry x="75" y="1100" width="180" height="500" as="geometry" />
        </mxCell>
        <mxCell id="vE5Wcmu8pGLO7yd3Htef-13" value="userId，activityId" style="rounded=1;whiteSpace=wrap;html=1;" parent="vE5Wcmu8pGLO7yd3Htef-12" vertex="1">
          <mxGeometry x="30" y="50" width="120" height="60" as="geometry" />
        </mxCell>
        <mxCell id="vE5Wcmu8pGLO7yd3Htef-25" value="兑换失败，兑换次数已经超过指定次数" style="rounded=1;whiteSpace=wrap;html=1;" parent="vE5Wcmu8pGLO7yd3Htef-12" vertex="1">
          <mxGeometry x="30" y="300" width="120" height="60" as="geometry" />
        </mxCell>
        <mxCell id="vE5Wcmu8pGLO7yd3Htef-29" value="成功，返回所有奖励，并将可兑换最高奖励打钩/没有就返回拼图数不足" style="rounded=1;whiteSpace=wrap;html=1;" parent="vE5Wcmu8pGLO7yd3Htef-12" vertex="1">
          <mxGeometry x="30" y="390" width="120" height="60" as="geometry" />
        </mxCell>
        <mxCell id="vE5Wcmu8pGLO7yd3Htef-15" value="后台" style="swimlane;startSize=20;" parent="1" vertex="1">
          <mxGeometry x="255" y="1100" width="180" height="500" as="geometry" />
        </mxCell>
        <mxCell id="vE5Wcmu8pGLO7yd3Htef-20" value="" style="edgeStyle=orthogonalEdgeStyle;rounded=0;orthogonalLoop=1;jettySize=auto;html=1;" parent="vE5Wcmu8pGLO7yd3Htef-15" source="vE5Wcmu8pGLO7yd3Htef-16" target="vE5Wcmu8pGLO7yd3Htef-19" edge="1">
          <mxGeometry relative="1" as="geometry" />
        </mxCell>
        <mxCell id="vE5Wcmu8pGLO7yd3Htef-16" value="查询当前用户可用拼图总数" style="rounded=1;whiteSpace=wrap;html=1;" parent="vE5Wcmu8pGLO7yd3Htef-15" vertex="1">
          <mxGeometry x="50" y="50" width="120" height="60" as="geometry" />
        </mxCell>
        <mxCell id="vE5Wcmu8pGLO7yd3Htef-22" value="" style="edgeStyle=orthogonalEdgeStyle;rounded=0;orthogonalLoop=1;jettySize=auto;html=1;" parent="vE5Wcmu8pGLO7yd3Htef-15" source="vE5Wcmu8pGLO7yd3Htef-19" target="vE5Wcmu8pGLO7yd3Htef-21" edge="1">
          <mxGeometry relative="1" as="geometry" />
        </mxCell>
        <mxCell id="vE5Wcmu8pGLO7yd3Htef-19" value="查询当前活动的所有奖励" style="rounded=1;whiteSpace=wrap;html=1;" parent="vE5Wcmu8pGLO7yd3Htef-15" vertex="1">
          <mxGeometry x="50" y="130" width="120" height="60" as="geometry" />
        </mxCell>
        <mxCell id="vE5Wcmu8pGLO7yd3Htef-24" value="" style="edgeStyle=orthogonalEdgeStyle;rounded=0;orthogonalLoop=1;jettySize=auto;html=1;" parent="vE5Wcmu8pGLO7yd3Htef-15" source="vE5Wcmu8pGLO7yd3Htef-21" target="vE5Wcmu8pGLO7yd3Htef-23" edge="1">
          <mxGeometry relative="1" as="geometry" />
        </mxCell>
        <mxCell id="vE5Wcmu8pGLO7yd3Htef-21" value="查询用户兑奖记录" style="rounded=1;whiteSpace=wrap;html=1;" parent="vE5Wcmu8pGLO7yd3Htef-15" vertex="1">
          <mxGeometry x="50" y="210" width="120" height="60" as="geometry" />
        </mxCell>
        <mxCell id="vE5Wcmu8pGLO7yd3Htef-28" value="否" style="edgeStyle=orthogonalEdgeStyle;rounded=0;orthogonalLoop=1;jettySize=auto;html=1;" parent="vE5Wcmu8pGLO7yd3Htef-15" source="vE5Wcmu8pGLO7yd3Htef-23" target="vE5Wcmu8pGLO7yd3Htef-27" edge="1">
          <mxGeometry relative="1" as="geometry" />
        </mxCell>
        <mxCell id="vE5Wcmu8pGLO7yd3Htef-23" value="判断兑换次数已经超过设置数" style="rounded=1;whiteSpace=wrap;html=1;" parent="vE5Wcmu8pGLO7yd3Htef-15" vertex="1">
          <mxGeometry x="50" y="300" width="120" height="60" as="geometry" />
        </mxCell>
        <mxCell id="vE5Wcmu8pGLO7yd3Htef-27" value="判断用户当前可用拼图处于哪个奖励区间" style="rounded=1;whiteSpace=wrap;html=1;" parent="vE5Wcmu8pGLO7yd3Htef-15" vertex="1">
          <mxGeometry x="50" y="390" width="120" height="60" as="geometry" />
        </mxCell>
        <mxCell id="vE5Wcmu8pGLO7yd3Htef-17" value="" style="edgeStyle=orthogonalEdgeStyle;rounded=0;orthogonalLoop=1;jettySize=auto;html=1;" parent="1" source="vE5Wcmu8pGLO7yd3Htef-13" target="vE5Wcmu8pGLO7yd3Htef-16" edge="1">
          <mxGeometry relative="1" as="geometry" />
        </mxCell>
        <mxCell id="vE5Wcmu8pGLO7yd3Htef-26" value="是" style="edgeStyle=orthogonalEdgeStyle;rounded=0;orthogonalLoop=1;jettySize=auto;html=1;" parent="1" source="vE5Wcmu8pGLO7yd3Htef-23" target="vE5Wcmu8pGLO7yd3Htef-25" edge="1">
          <mxGeometry relative="1" as="geometry" />
        </mxCell>
        <mxCell id="vE5Wcmu8pGLO7yd3Htef-30" value="" style="edgeStyle=orthogonalEdgeStyle;rounded=0;orthogonalLoop=1;jettySize=auto;html=1;" parent="1" source="vE5Wcmu8pGLO7yd3Htef-27" target="vE5Wcmu8pGLO7yd3Htef-29" edge="1">
          <mxGeometry relative="1" as="geometry" />
        </mxCell>
        <mxCell id="vE5Wcmu8pGLO7yd3Htef-31" value="wx/app" style="swimlane;startSize=20;" parent="1" vertex="1">
          <mxGeometry x="70" y="560" width="180" height="450" as="geometry" />
        </mxCell>
        <mxCell id="vE5Wcmu8pGLO7yd3Htef-32" value="userId" style="rounded=1;whiteSpace=wrap;html=1;" parent="vE5Wcmu8pGLO7yd3Htef-31" vertex="1">
          <mxGeometry x="30" y="50" width="120" height="60" as="geometry" />
        </mxCell>
        <mxCell id="vE5Wcmu8pGLO7yd3Htef-46" value="成功" style="rounded=1;whiteSpace=wrap;html=1;" parent="vE5Wcmu8pGLO7yd3Htef-31" vertex="1">
          <mxGeometry x="30" y="380" width="120" height="60" as="geometry" />
        </mxCell>
        <mxCell id="vE5Wcmu8pGLO7yd3Htef-34" value="后台" style="swimlane;startSize=20;" parent="1" vertex="1">
          <mxGeometry x="250" y="560" width="180" height="450" as="geometry" />
        </mxCell>
        <mxCell id="vE5Wcmu8pGLO7yd3Htef-39" value="" style="edgeStyle=orthogonalEdgeStyle;rounded=0;orthogonalLoop=1;jettySize=auto;html=1;" parent="vE5Wcmu8pGLO7yd3Htef-34" source="vE5Wcmu8pGLO7yd3Htef-35" target="vE5Wcmu8pGLO7yd3Htef-38" edge="1">
          <mxGeometry relative="1" as="geometry" />
        </mxCell>
        <mxCell id="vE5Wcmu8pGLO7yd3Htef-35" value="根据渠道查询对应的拼图活动，活动信息放入缓存" style="rounded=1;whiteSpace=wrap;html=1;" parent="vE5Wcmu8pGLO7yd3Htef-34" vertex="1">
          <mxGeometry x="50" y="50" width="120" height="60" as="geometry" />
        </mxCell>
        <mxCell id="vE5Wcmu8pGLO7yd3Htef-41" value="" style="edgeStyle=orthogonalEdgeStyle;rounded=0;orthogonalLoop=1;jettySize=auto;html=1;" parent="vE5Wcmu8pGLO7yd3Htef-34" source="vE5Wcmu8pGLO7yd3Htef-38" target="vE5Wcmu8pGLO7yd3Htef-40" edge="1">
          <mxGeometry relative="1" as="geometry" />
        </mxCell>
        <mxCell id="vE5Wcmu8pGLO7yd3Htef-38" value="查询当前户的头像和昵称" style="rounded=1;whiteSpace=wrap;html=1;" parent="vE5Wcmu8pGLO7yd3Htef-34" vertex="1">
          <mxGeometry x="50" y="140" width="120" height="60" as="geometry" />
        </mxCell>
        <mxCell id="vE5Wcmu8pGLO7yd3Htef-43" value="" style="edgeStyle=orthogonalEdgeStyle;rounded=0;orthogonalLoop=1;jettySize=auto;html=1;" parent="vE5Wcmu8pGLO7yd3Htef-34" source="vE5Wcmu8pGLO7yd3Htef-40" target="vE5Wcmu8pGLO7yd3Htef-42" edge="1">
          <mxGeometry relative="1" as="geometry" />
        </mxCell>
        <mxCell id="vE5Wcmu8pGLO7yd3Htef-40" value="查询当前用户赠送中的拼图" style="rounded=1;whiteSpace=wrap;html=1;" parent="vE5Wcmu8pGLO7yd3Htef-34" vertex="1">
          <mxGeometry x="50" y="230" width="120" height="60" as="geometry" />
        </mxCell>
        <mxCell id="vE5Wcmu8pGLO7yd3Htef-45" value="" style="edgeStyle=orthogonalEdgeStyle;rounded=0;orthogonalLoop=1;jettySize=auto;html=1;" parent="vE5Wcmu8pGLO7yd3Htef-34" source="vE5Wcmu8pGLO7yd3Htef-42" target="vE5Wcmu8pGLO7yd3Htef-44" edge="1">
          <mxGeometry relative="1" as="geometry" />
        </mxCell>
        <mxCell id="vE5Wcmu8pGLO7yd3Htef-42" value="查询当前用户可用拼图总数" style="rounded=1;whiteSpace=wrap;html=1;" parent="vE5Wcmu8pGLO7yd3Htef-34" vertex="1">
          <mxGeometry x="50" y="310" width="120" height="60" as="geometry" />
        </mxCell>
        <mxCell id="vE5Wcmu8pGLO7yd3Htef-44" value="根据活动配置判断是否需要展示赠送按钮" style="rounded=1;whiteSpace=wrap;html=1;" parent="vE5Wcmu8pGLO7yd3Htef-34" vertex="1">
          <mxGeometry x="50" y="380" width="120" height="60" as="geometry" />
        </mxCell>
        <mxCell id="vE5Wcmu8pGLO7yd3Htef-36" value="" style="edgeStyle=orthogonalEdgeStyle;rounded=0;orthogonalLoop=1;jettySize=auto;html=1;" parent="1" source="vE5Wcmu8pGLO7yd3Htef-32" target="vE5Wcmu8pGLO7yd3Htef-35" edge="1">
          <mxGeometry relative="1" as="geometry" />
        </mxCell>
        <mxCell id="vE5Wcmu8pGLO7yd3Htef-47" value="" style="edgeStyle=orthogonalEdgeStyle;rounded=0;orthogonalLoop=1;jettySize=auto;html=1;" parent="1" source="vE5Wcmu8pGLO7yd3Htef-44" target="vE5Wcmu8pGLO7yd3Htef-46" edge="1">
          <mxGeometry relative="1" as="geometry" />
        </mxCell>
        <mxCell id="vE5Wcmu8pGLO7yd3Htef-63" style="edgeStyle=orthogonalEdgeStyle;rounded=0;orthogonalLoop=1;jettySize=auto;html=1;exitX=0.75;exitY=1;exitDx=0;exitDy=0;" parent="1" source="lTAeMfMbc0AauGk1_NEG-111" edge="1">
          <mxGeometry relative="1" as="geometry">
            <mxPoint x="454" y="3650" as="targetPoint" />
          </mxGeometry>
        </mxCell>
        <mxCell id="rnevg4mzAQMMUmfZW82p-37" value="成功" style="edgeStyle=orthogonalEdgeStyle;rounded=0;orthogonalLoop=1;jettySize=auto;html=1;entryX=0.5;entryY=0;entryDx=0;entryDy=0;" edge="1" parent="1" source="lTAeMfMbc0AauGk1_NEG-74" target="rnevg4mzAQMMUmfZW82p-35">
          <mxGeometry relative="1" as="geometry" />
        </mxCell>
        <mxCell id="lTAeMfMbc0AauGk1_NEG-74" value="&lt;span style=&quot;color: rgb(73 , 73 , 73) ; font-family: , &amp;#34;blinkmacsystemfont&amp;#34; , &amp;#34;pingfang sc&amp;#34; , &amp;#34;helvetica&amp;#34; , &amp;#34;tahoma&amp;#34; , &amp;#34;arial&amp;#34; , &amp;#34;hiragino sans gb&amp;#34; , &amp;#34;microsoft yahei&amp;#34; , , sans-serif ; font-size: 14.6667px ; text-align: left ; white-space: pre-wrap ; background-color: rgb(255 , 255 , 255)&quot;&gt;优惠券/积分/权益包/储值余额&lt;/span&gt;" style="rounded=1;whiteSpace=wrap;html=1;" parent="1" vertex="1">
          <mxGeometry x="610" y="3160" width="120" height="60" as="geometry" />
        </mxCell>
        <mxCell id="rnevg4mzAQMMUmfZW82p-53" style="edgeStyle=orthogonalEdgeStyle;rounded=0;orthogonalLoop=1;jettySize=auto;html=1;exitX=1;exitY=0.5;exitDx=0;exitDy=0;entryX=0.5;entryY=0;entryDx=0;entryDy=0;" edge="1" parent="1" source="rnevg4mzAQMMUmfZW82p-51" target="lTAeMfMbc0AauGk1_NEG-74">
          <mxGeometry relative="1" as="geometry" />
        </mxCell>
        <mxCell id="rnevg4mzAQMMUmfZW82p-58" style="edgeStyle=orthogonalEdgeStyle;rounded=0;orthogonalLoop=1;jettySize=auto;html=1;exitX=0;exitY=0.5;exitDx=0;exitDy=0;" edge="1" parent="1" source="rnevg4mzAQMMUmfZW82p-44">
          <mxGeometry relative="1" as="geometry">
            <mxPoint x="190" y="2500" as="targetPoint" />
          </mxGeometry>
        </mxCell>
        <mxCell id="rnevg4mzAQMMUmfZW82p-65" value="" style="edgeStyle=orthogonalEdgeStyle;rounded=0;orthogonalLoop=1;jettySize=auto;html=1;" edge="1" parent="1" source="rnevg4mzAQMMUmfZW82p-46" target="rnevg4mzAQMMUmfZW82p-10">
          <mxGeometry relative="1" as="geometry" />
        </mxCell>
        <mxCell id="rnevg4mzAQMMUmfZW82p-70" value="" style="edgeStyle=orthogonalEdgeStyle;rounded=0;orthogonalLoop=1;jettySize=auto;html=1;" edge="1" parent="1" source="rnevg4mzAQMMUmfZW82p-49" target="rnevg4mzAQMMUmfZW82p-69">
          <mxGeometry relative="1" as="geometry" />
        </mxCell>
        <mxCell id="lTAeMfMbc0AauGk1_NEG-47" value=" " style="swimlane;startSize=20;" parent="1" vertex="1">
          <mxGeometry x="600" y="1750" width="140" height="2190" as="geometry" />
        </mxCell>
        <mxCell id="rnevg4mzAQMMUmfZW82p-91" value="puzzle_process_log（流程记录）" style="swimlane;fontStyle=0;childLayout=stackLayout;horizontal=1;startSize=26;fillColor=#e0e0e0;horizontalStack=0;resizeParent=1;resizeParentMax=0;resizeLast=0;collapsible=1;marginBottom=0;swimlaneFillColor=#ffffff;align=center;fontSize=14;" vertex="1" parent="1">
          <mxGeometry x="760" y="50" width="230" height="312" as="geometry">
            <mxRectangle x="60" y="1040" width="210" height="26" as="alternateBounds" />
          </mxGeometry>
        </mxCell>
        <mxCell id="rnevg4mzAQMMUmfZW82p-92" value="id  主键" style="text;strokeColor=none;fillColor=none;spacingLeft=4;spacingRight=4;overflow=hidden;rotatable=0;points=[[0,0.5],[1,0.5]];portConstraint=eastwest;fontSize=12;" vertex="1" parent="rnevg4mzAQMMUmfZW82p-91">
          <mxGeometry y="26" width="230" height="26" as="geometry" />
        </mxCell>
        <mxCell id="rnevg4mzAQMMUmfZW82p-93" value="channel 渠道" style="text;strokeColor=none;fillColor=none;spacingLeft=4;spacingRight=4;overflow=hidden;rotatable=0;points=[[0,0.5],[1,0.5]];portConstraint=eastwest;fontSize=12;" vertex="1" parent="rnevg4mzAQMMUmfZW82p-91">
          <mxGeometry y="52" width="230" height="26" as="geometry" />
        </mxCell>
        <mxCell id="rnevg4mzAQMMUmfZW82p-94" value="user_id 用户id" style="text;strokeColor=none;fillColor=none;spacingLeft=4;spacingRight=4;overflow=hidden;rotatable=0;points=[[0,0.5],[1,0.5]];portConstraint=eastwest;fontSize=12;" vertex="1" parent="rnevg4mzAQMMUmfZW82p-91">
          <mxGeometry y="78" width="230" height="26" as="geometry" />
        </mxCell>
        <mxCell id="rnevg4mzAQMMUmfZW82p-96" value="act_id 活动id" style="text;strokeColor=none;fillColor=none;spacingLeft=4;spacingRight=4;overflow=hidden;rotatable=0;points=[[0,0.5],[1,0.5]];portConstraint=eastwest;fontSize=12;" vertex="1" parent="rnevg4mzAQMMUmfZW82p-91">
          <mxGeometry y="104" width="230" height="26" as="geometry" />
        </mxCell>
        <mxCell id="rnevg4mzAQMMUmfZW82p-97" value="award_id 奖品id" style="text;strokeColor=none;fillColor=none;spacingLeft=4;spacingRight=4;overflow=hidden;rotatable=0;points=[[0,0.5],[1,0.5]];portConstraint=eastwest;fontSize=12;" vertex="1" parent="rnevg4mzAQMMUmfZW82p-91">
          <mxGeometry y="130" width="230" height="26" as="geometry" />
        </mxCell>
        <mxCell id="rnevg4mzAQMMUmfZW82p-98" value="create_time 创建时间" style="text;strokeColor=none;fillColor=none;spacingLeft=4;spacingRight=4;overflow=hidden;rotatable=0;points=[[0,0.5],[1,0.5]];portConstraint=eastwest;fontSize=12;" vertex="1" parent="rnevg4mzAQMMUmfZW82p-91">
          <mxGeometry y="156" width="230" height="26" as="geometry" />
        </mxCell>
        <mxCell id="rnevg4mzAQMMUmfZW82p-105" value="update_time 更新时间" style="text;strokeColor=none;fillColor=none;spacingLeft=4;spacingRight=4;overflow=hidden;rotatable=0;points=[[0,0.5],[1,0.5]];portConstraint=eastwest;fontSize=12;" vertex="1" parent="rnevg4mzAQMMUmfZW82p-91">
          <mxGeometry y="182" width="230" height="26" as="geometry" />
        </mxCell>
        <mxCell id="rnevg4mzAQMMUmfZW82p-100" value="state 状态" style="text;strokeColor=none;fillColor=none;spacingLeft=4;spacingRight=4;overflow=hidden;rotatable=0;points=[[0,0.5],[1,0.5]];portConstraint=eastwest;fontSize=12;" vertex="1" parent="rnevg4mzAQMMUmfZW82p-91">
          <mxGeometry y="208" width="230" height="26" as="geometry" />
        </mxCell>
        <mxCell id="rnevg4mzAQMMUmfZW82p-103" value="description 描述" style="text;strokeColor=none;fillColor=none;spacingLeft=4;spacingRight=4;overflow=hidden;rotatable=0;points=[[0,0.5],[1,0.5]];portConstraint=eastwest;fontSize=12;" vertex="1" parent="rnevg4mzAQMMUmfZW82p-91">
          <mxGeometry y="234" width="230" height="26" as="geometry" />
        </mxCell>
        <mxCell id="rnevg4mzAQMMUmfZW82p-102" value="transaction_id 业务id" style="text;strokeColor=none;fillColor=none;spacingLeft=4;spacingRight=4;overflow=hidden;rotatable=0;points=[[0,0.5],[1,0.5]];portConstraint=eastwest;fontSize=12;" vertex="1" parent="rnevg4mzAQMMUmfZW82p-91">
          <mxGeometry y="260" width="230" height="26" as="geometry" />
        </mxCell>
        <mxCell id="rnevg4mzAQMMUmfZW82p-104" value="type 流程类型" style="text;strokeColor=none;fillColor=none;spacingLeft=4;spacingRight=4;overflow=hidden;rotatable=0;points=[[0,0.5],[1,0.5]];portConstraint=eastwest;fontSize=12;" vertex="1" parent="rnevg4mzAQMMUmfZW82p-91">
          <mxGeometry y="286" width="230" height="26" as="geometry" />
        </mxCell>
        <mxCell id="rnevg4mzAQMMUmfZW82p-19" style="edgeStyle=orthogonalEdgeStyle;rounded=0;orthogonalLoop=1;jettySize=auto;html=1;exitX=0;exitY=0.5;exitDx=0;exitDy=0;entryX=1;entryY=0.5;entryDx=0;entryDy=0;" edge="1" parent="1" source="lTAeMfMbc0AauGk1_NEG-53" target="lTAeMfMbc0AauGk1_NEG-59">
          <mxGeometry relative="1" as="geometry">
            <mxPoint x="330" y="2170" as="targetPoint" />
          </mxGeometry>
        </mxCell>
        <mxCell id="rnevg4mzAQMMUmfZW82p-20" value="满足限领" style="text;html=1;align=center;verticalAlign=middle;resizable=0;points=[];labelBackgroundColor=#ffffff;" vertex="1" connectable="0" parent="rnevg4mzAQMMUmfZW82p-19">
          <mxGeometry x="-0.2398" y="-2" relative="1" as="geometry">
            <mxPoint as="offset" />
          </mxGeometry>
        </mxCell>
      </root>
    </mxGraphModel>
  </diagram>
</mxfile>
